<svg width="16" height="13" fill="none" xmlns="http://www.w3.org/2000/svg"><rect id="backgroundrect" width="100%" height="100%" x="0" y="0" fill="none" stroke="none"/>

<g class="currentLayer" style=""><title>Layer 1</title><path d="M 7.9932485597205165 12.094402045834064 L 7.7863 11.997 C 6.93353 11.0889 5.83294 10.2771 4.81179 9.52388 L 4.77681 9.49807 L 4.77661 9.49792 C 3.66529 8.67902 2.59056 7.88452 1.7870599999999999 6.98363 C 0.992971 6.0933 0.5 5.13814 0.5 4.00256 C 0.5 2.96155 0.9015139999999995 2.09782 1.5789900000000001 1.4897200000000002 C 2.26042 0.878062 3.25047 0.5 4.45964 0.5 C 5.78307 0.5 6.96101 1.36075 7.65584 2.0148 L 7.99855 2.3374 L 8.34125 2.0148 C 9.0357 1.36111 10.2167 0.5 11.5411 0.5 C 12.7499 0.5 13.739700000000001 0.8780420000000003 14.4211 1.4897 C 15.0985 2.09781 15.5 2.9615400000000003 15.5 4.00256 C 15.5 5.13841 15.0067 6.09371 14.2124 6.9840599999999995 C 13.4086 7.88495 12.3337 8.67927 11.2228 9.49785 C 11.2227 9.49787 11.2227 9.49789 11.2227 9.497910000000001 L 11.2142 9.50418 C 10.1844 10.2626 9.07343 11.0808 8.21205 11.9964 C 8.17346 12.0372 8.10479 12.0714 8.02036 12.0714 H 7.97818 C 7.89335 12.0714 7.8241 12.037 7.78541 11.996 L 7.9932485597205165 12.094402045834064 z M 7.97818 11.836706137502194 H 8.02036 L 7.97818 11.836706137502194 z" stroke="black" id="svg_1" class=""/></g></svg>