<svg width="16" height="13" fill="none" xmlns="http://www.w3.org/2000/svg" style=""><rect id="backgroundrect" width="100%" height="100%" x="0" y="0" fill="none" stroke="none"/>

<g class="currentLayer" style=""><title>Layer 1</title><path d="M 7.9932485597205165 12.094402045834064 L 7.7863 11.997 C 6.93353 11.0889 5.83294 10.2771 4.81179 9.52388 L 4.77681 9.49807 L 4.77661 9.49792 C 3.66529 8.67902 2.59056 7.88452 1.7870599999999999 6.98363 C 0.992971 6.0933 0.5 5.13814 0.5 4.00256 C 0.5 2.96155 0.9015139999999995 2.09782 1.5789900000000001 1.4897200000000002 C 2.26042 0.878062 3.25047 0.5 4.45964 0.5 C 5.78307 0.5 6.96101 1.36075 7.65584 2.0148 L 7.99855 2.3374 L 8.34125 2.0148 C 9.0357 1.36111 10.2167 0.5 11.5411 0.5 C 12.7499 0.5 13.739700000000001 0.8780420000000003 14.4211 1.4897 C 15.0985 2.09781 15.5 2.9615400000000003 15.5 4.00256 C 15.5 5.13841 15.0067 6.09371 14.2124 6.9840599999999995 C 13.4086 7.88495 12.3337 8.67927 11.2228 9.49785 C 11.2227 9.49787 11.2227 9.49789 11.2227 9.497910000000001 L 11.2142 9.50418 C 10.1844 10.2626 9.07343 11.0808 8.21205 11.9964 C 8.17346 12.0372 8.10479 12.0714 8.02036 12.0714 H 7.97818 C 7.89335 12.0714 7.8241 12.037 7.78541 11.996 L 7.9932485597205165 12.094402045834064 z M 7.97818 11.836706137502194 H 8.02036 L 7.97818 11.836706137502194 z" stroke="black" id="svg_1" class=""/><polyline fill="none" stroke="black" style="color: rgb(0, 0, 0);" stroke-dashoffset="" fill-rule="nonzero" marker-start="" marker-mid="" marker-end="" id="svg_2" points="3.673469677567482,2.139455258846283 3.591837026178837,2.139455258846283 3.591837026178837,2.221087910234928 3.5102043747901917,2.3027205616235733 3.3469390720129013,2.710883818566799 3.183673769235611,3.03741442412138 3.102041117846966,3.2823123782873154 3.102041117846966,3.527210332453251 3.102041117846966,3.6904756352305412 3.183673769235611,3.8537409380078316 3.183673769235611,4.017006240785122 3.3469390720129013,4.017006240785122 3.3469390720129013,4.098638892173767 3.4285717234015465,4.098638892173767 3.4285717234015465,4.098638892173767 3.591837026178837,4.180271543562412 3.673469677567482,4.261904194951057 3.755102328956127,4.261904194951057 "/><polyline fill="none" stroke="black" style="color: rgb(0, 0, 0);" stroke-width="5" stroke-dashoffset="" fill-rule="nonzero" marker-start="" marker-mid="" marker-end="" id="svg_3" points="11.020408302545547,5.812924571335316 10.857142999768257,5.812924571335316 10.857142999768257,5.812924571335316 10.693877696990967,5.894557222723961 10.530612394213676,5.976189874112606 10.204081788659096,6.057822525501251 9.877551183104515,6.221087828278542 9.551020577549934,6.384353131055832 9.387755274772644,6.465985782444477 9.306122623383999,6.465985782444477 9.306122623383999,6.465985782444477 "/><polyline fill="none" stroke="black" style="color: rgb(0, 0, 0);" stroke-width="5" stroke-dashoffset="" fill-rule="nonzero" marker-start="" marker-mid="" marker-end="" id="svg_4" points="11.591836862266064,5.486393965780735 11.510204210877419,5.486393965780735 11.346938908100128,5.486393965780735 11.020408302545547,5.56802661716938 10.612245045602322,5.56802661716938 10.12244913727045,5.7312919199466705 9.714285880327225,5.812924571335316 9.142857320606709,5.812924571335316 8.979592017829418,5.812924571335316 8.816326715052128,5.812924571335316 8.734694063663483,5.812924571335316 8.734694063663483,5.812924571335316 8.571428760886192,5.812924571335316 8.489796109497547,5.812924571335316 8.244898155331612,5.7312919199466705 8.081632852554321,5.7312919199466705 7.918367549777031,5.7312919199466705 7.755102246999741,5.7312919199466705 7.59183694422245,5.7312919199466705 7.346938990056515,5.649659268558025 7.183673687279224,5.649659268558025 7.102041035890579,5.649659268558025 7.020408384501934,5.649659268558025 6.938775733113289,5.649659268558025 6.857143081724644,5.649659268558025 6.7755104303359985,5.649659268558025 6.693877778947353,5.649659268558025 6.612245127558708,5.649659268558025 6.530612476170063,5.649659268558025 6.530612476170063,5.649659268558025 6.2857145220041275,5.649659268558025 6.204081870615482,5.649659268558025 6.040816567838192,5.649659268558025 5.959183916449547,5.56802661716938 5.714285962283611,5.56802661716938 5.632653310894966,5.56802661716938 5.551020659506321,5.486393965780735 5.469388008117676,5.486393965780735 5.469388008117676,5.486393965780735 5.469388008117676,5.40476131439209 5.387755356729031,5.40476131439209 5.387755356729031,5.323128663003445 5.387755356729031,5.2414960116147995 5.469388008117676,5.2414960116147995 5.469388008117676,5.159863360226154 5.551020659506321,5.159863360226154 5.632653310894966,5.159863360226154 5.7959186136722565,5.159863360226154 5.959183916449547,5.078230708837509 5.959183916449547,5.078230708837509 5.959183916449547,4.996598057448864 6.040816567838192,4.996598057448864 6.040816567838192,4.996598057448864 6.122449219226837,4.996598057448864 6.204081870615482,4.996598057448864 6.204081870615482,4.996598057448864 6.2857145220041275,4.914965406060219 6.2857145220041275,4.914965406060219 6.367347173392773,4.914965406060219 6.530612476170063,4.914965406060219 6.7755104303359985,4.914965406060219 6.938775733113289,4.996598057448864 7.183673687279224,4.996598057448864 7.42857164144516,4.996598057448864 7.673469595611095,5.078230708837509 7.755102246999741,5.159863360226154 7.918367549777031,5.159863360226154 8.000000201165676,5.159863360226154 8.000000201165676,5.159863360226154 8.081632852554321,5.159863360226154 8.163265503942966,5.159863360226154 8.163265503942966,5.159863360226154 8.244898155331612,5.159863360226154 8.489796109497547,5.159863360226154 8.571428760886192,5.078230708837509 8.734694063663483,4.996598057448864 8.897959366440773,4.914965406060219 8.897959366440773,4.914965406060219 8.979592017829418,4.914965406060219 9.061224669218063,4.833332754671574 9.061224669218063,4.7517001032829285 9.061224669218063,4.670067451894283 9.061224669218063,4.670067451894283 9.061224669218063,4.588434800505638 8.979592017829418,4.588434800505638 8.897959366440773,4.588434800505638 8.816326715052128,4.588434800505638 8.734694063663483,4.588434800505638 8.571428760886192,4.588434800505638 8.571428760886192,4.588434800505638 8.489796109497547,4.588434800505638 8.571428760886192,4.588434800505638 8.571428760886192,4.588434800505638 8.734694063663483,4.588434800505638 8.816326715052128,4.588434800505638 8.979592017829418,4.588434800505638 9.061224669218063,4.588434800505638 9.142857320606709,4.506802149116993 9.306122623383999,4.506802149116993 9.387755274772644,4.425169497728348 9.387755274772644,4.425169497728348 9.46938792616129,4.425169497728348 9.46938792616129,4.425169497728348 9.63265322893858,4.425169497728348 9.63265322893858,4.343536846339703 9.63265322893858,4.343536846339703 9.714285880327225,4.343536846339703 9.714285880327225,4.343536846339703 9.79591853171587,4.343536846339703 9.877551183104515,4.261904194951057 9.95918383449316,4.261904194951057 9.95918383449316,4.261904194951057 10.12244913727045,4.261904194951057 10.204081788659096,4.261904194951057 10.285714440047741,4.180271543562412 10.285714440047741,4.180271543562412 10.448979742825031,4.180271543562412 10.448979742825031,4.180271543562412 10.530612394213676,4.180271543562412 10.530612394213676,4.180271543562412 10.612245045602322,4.180271543562412 10.612245045602322,4.098638892173767 10.693877696990967,4.098638892173767 10.775510348379612,4.098638892173767 10.775510348379612,4.098638892173767 10.775510348379612,4.098638892173767 10.857142999768257,4.098638892173767 10.938775651156902,4.098638892173767 11.020408302545547,4.098638892173767 11.102040953934193,4.098638892173767 11.102040953934193,4.017006240785122 11.183673605322838,4.017006240785122 11.183673605322838,4.017006240785122 11.265306256711483,4.017006240785122 11.346938908100128,3.9353735893964767 11.428571559488773,3.9353735893964767 11.428571559488773,3.9353735893964767 11.510204210877419,3.9353735893964767 11.591836862266064,3.9353735893964767 11.591836862266064,3.9353735893964767 11.673469513654709,3.9353735893964767 11.755102165043354,3.8537409380078316 11.755102165043354,3.8537409380078316 11.836734816432,3.8537409380078316 11.918367467820644,3.8537409380078316 12.00000011920929,3.8537409380078316 12.00000011920929,3.8537409380078316 12.16326542198658,3.8537409380078316 12.244898073375225,3.8537409380078316 12.32653072476387,3.7721082866191864 12.408163376152515,3.7721082866191864 12.48979602754116,3.7721082866191864 12.571428678929806,3.7721082866191864 12.571428678929806,3.7721082866191864 12.571428678929806,3.7721082866191864 12.48979602754116,3.7721082866191864 12.408163376152515,3.7721082866191864 12.244898073375225,3.7721082866191864 12.081632770597935,3.7721082866191864 11.918367467820644,3.7721082866191864 11.836734816432,3.7721082866191864 11.755102165043354,3.7721082866191864 11.755102165043354,3.7721082866191864 11.673469513654709,3.7721082866191864 11.673469513654709,3.7721082866191864 11.591836862266064,3.7721082866191864 11.591836862266064,3.7721082866191864 11.510204210877419,3.7721082866191864 11.428571559488773,3.7721082866191864 11.346938908100128,3.7721082866191864 11.183673605322838,3.7721082866191864 11.102040953934193,3.8537409380078316 11.102040953934193,3.8537409380078316 10.938775651156902,3.8537409380078316 10.857142999768257,3.8537409380078316 10.775510348379612,3.8537409380078316 "/><polyline fill="none" stroke="black" style="color: rgb(0, 0, 0);" stroke-dashoffset="" fill-rule="nonzero" marker-start="" marker-mid="" marker-end="" id="svg_5" points="10.530612394213676,1.5680266991257668 10.530612394213676,1.5680266991257668 10.530612394213676,1.4863940477371216 10.612245045602322,1.4863940477371216 10.612245045602322,1.4047613963484764 10.612245045602322,1.4047613963484764 10.693877696990967,1.4047613963484764 10.857142999768257,1.3231287449598312 10.938775651156902,1.241496093571186 11.102040953934193,1.159863442182541 11.102040953934193,1.159863442182541 11.183673605322838,1.159863442182541 11.102040953934193,1.159863442182541 10.857142999768257,1.159863442182541 10.612245045602322,1.159863442182541 10.448979742825031,1.241496093571186 10.285714440047741,1.241496093571186 10.448979742825031,1.241496093571186 10.612245045602322,1.159863442182541 10.857142999768257,1.159863442182541 11.102040953934193,1.159863442182541 11.346938908100128,1.159863442182541 11.673469513654709,1.0782307907938957 11.755102165043354,1.0782307907938957 11.836734816432,1.0782307907938957 11.918367467820644,1.0782307907938957 12.16326542198658,1.0782307907938957 12.32653072476387,1.0782307907938957 12.571428678929806,1.159863442182541 12.816326633095741,1.159863442182541 12.979591935873032,1.241496093571186 13.142857238650322,1.241496093571186 13.142857238650322,1.241496093571186 13.142857238650322,1.3231287449598312 13.061224587261677,1.3231287449598312 12.816326633095741,1.4047613963484764 12.48979602754116,1.4047613963484764 12.00000011920929,1.4863940477371216 11.510204210877419,1.4863940477371216 11.102040953934193,1.4863940477371216 10.693877696990967,1.4863940477371216 10.448979742825031,1.4863940477371216 10.285714440047741,1.4863940477371216 10.285714440047741,1.5680266991257668 10.204081788659096,1.5680266991257668 10.12244913727045,1.5680266991257668 9.95918383449316,1.5680266991257668 9.877551183104515,1.5680266991257668 9.714285880327225,1.649659350514412 9.63265322893858,1.649659350514412 9.551020577549934,1.649659350514412 9.46938792616129,1.649659350514412 9.46938792616129,1.5680266991257668 9.551020577549934,1.4863940477371216 9.63265322893858,1.4047613963484764 9.714285880327225,1.3231287449598312 9.714285880327225,1.241496093571186 9.79591853171587,1.241496093571186 9.877551183104515,1.241496093571186 9.877551183104515,1.3231287449598312 9.95918383449316,1.4047613963484764 10.040816485881805,1.4863940477371216 10.204081788659096,1.5680266991257668 10.285714440047741,1.5680266991257668 10.530612394213676,1.5680266991257668 10.857142999768257,1.5680266991257668 11.183673605322838,1.5680266991257668 11.510204210877419,1.5680266991257668 11.755102165043354,1.5680266991257668 11.918367467820644,1.5680266991257668 12.00000011920929,1.5680266991257668 12.00000011920929,1.649659350514412 12.00000011920929,1.8945573046803474 11.918367467820644,2.221087910234928 11.755102165043354,2.3843532130122185 11.591836862266064,2.547618515789509 11.346938908100128,2.629251167178154 11.265306256711483,2.629251167178154 11.183673605322838,2.629251167178154 11.183673605322838,2.629251167178154 11.183673605322838,2.4659858644008636 11.183673605322838,2.3027205616235733 11.428571559488773,1.9761899560689926 11.673469513654709,1.8129246532917023 11.918367467820644,1.8129246532917023 12.081632770597935,1.8129246532917023 12.16326542198658,1.8129246532917023 12.32653072476387,1.8129246532917023 12.32653072476387,2.057822607457638 12.32653072476387,2.3027205616235733 12.32653072476387,2.4659858644008636 12.32653072476387,2.629251167178154 12.32653072476387,2.710883818566799 12.32653072476387,2.7925164699554443 12.244898073375225,2.710883818566799 12.244898073375225,2.629251167178154 12.244898073375225,2.547618515789509 12.408163376152515,2.3027205616235733 12.734693981707096,2.139455258846283 13.061224587261677,2.057822607457638 13.387755192816257,2.057822607457638 13.469387844204903,2.139455258846283 13.632653146982193,2.3027205616235733 13.632653146982193,2.629251167178154 13.714285798370838,2.9557817727327347 13.551020495593548,3.2823123782873154 13.306122541427612,3.4455776810646057 13.142857238650322,3.4455776810646057 12.897959284484386,3.4455776810646057 12.816326633095741,3.20067972689867 12.734693981707096,2.9557817727327347 12.734693981707096,2.710883818566799 12.734693981707096,2.547618515789509 12.897959284484386,2.3843532130122185 13.224489890038967,2.3027205616235733 13.714285798370838,2.221087910234928 13.959183752536774,2.221087910234928 14.20408170670271,2.3843532130122185 14.285714358091354,2.629251167178154 14.285714358091354,2.7925164699554443 14.20408170670271,2.9557817727327347 14.040816403925419,3.119047075510025 13.877551101148129,3.119047075510025 13.632653146982193,3.03741442412138 13.306122541427612,2.8741491213440895 13.061224587261677,2.629251167178154 12.897959284484386,2.3843532130122185 12.897959284484386,2.221087910234928 12.897959284484386,2.139455258846283 13.061224587261677,2.057822607457638 13.142857238650322,2.057822607457638 13.387755192816257,2.057822607457638 13.469387844204903,2.139455258846283 13.469387844204903,2.3027205616235733 13.469387844204903,2.4659858644008636 13.469387844204903,2.629251167178154 13.387755192816257,2.629251167178154 13.306122541427612,2.629251167178154 13.224489890038967,2.629251167178154 13.061224587261677,2.3843532130122185 13.061224587261677,2.3027205616235733 13.061224587261677,2.139455258846283 13.061224587261677,1.8945573046803474 13.142857238650322,1.8129246532917023 13.306122541427612,1.8129246532917023 13.387755192816257,1.8129246532917023 13.469387844204903,1.8129246532917023 13.632653146982193,1.9761899560689926 13.632653146982193,2.139455258846283 13.632653146982193,2.221087910234928 13.632653146982193,2.3027205616235733 13.551020495593548,2.3027205616235733 13.469387844204903,2.221087910234928 13.387755192816257,1.9761899560689926 13.387755192816257,1.8129246532917023 13.387755192816257,1.731292001903057 13.387755192816257,1.731292001903057 13.469387844204903,1.649659350514412 13.632653146982193,1.649659350514412 13.714285798370838,1.731292001903057 13.877551101148129,1.731292001903057 13.877551101148129,1.8129246532917023 13.877551101148129,1.8129246532917023 13.877551101148129,1.8945573046803474 13.877551101148129,1.9761899560689926 13.877551101148129,2.139455258846283 13.632653146982193,2.3027205616235733 13.387755192816257,2.4659858644008636 13.061224587261677,2.629251167178154 12.571428678929806,2.8741491213440895 12.244898073375225,3.119047075510025 12.16326542198658,3.119047075510025 12.00000011920929,3.119047075510025 12.16326542198658,3.119047075510025 12.244898073375225,3.119047075510025 12.734693981707096,3.119047075510025 12.897959284484386,3.20067972689867 12.979591935873032,3.2823123782873154 12.979591935873032,3.4455776810646057 12.897959284484386,3.6904756352305412 12.571428678929806,3.8537409380078316 12.16326542198658,4.098638892173767 11.591836862266064,4.261904194951057 11.510204210877419,4.261904194951057 11.591836862266064,4.261904194951057 11.755102165043354,4.180271543562412 12.408163376152515,3.8537409380078316 12.897959284484386,3.6904756352305412 13.142857238650322,3.6904756352305412 13.387755192816257,3.7721082866191864 13.469387844204903,3.9353735893964767 13.469387844204903,4.098638892173767 13.551020495593548,4.425169497728348 13.306122541427612,4.833332754671574 13.142857238650322,4.914965406060219 13.061224587261677,4.914965406060219 12.897959284484386,4.833332754671574 12.897959284484386,4.670067451894283 12.897959284484386,4.343536846339703 13.142857238650322,4.017006240785122 13.469387844204903,3.7721082866191864 13.877551101148129,3.527210332453251 14.285714358091354,3.4455776810646057 14.448979660868645,3.4455776810646057 14.612244963645935,3.6904756352305412 14.612244963645935,3.9353735893964767 14.36734700948,4.261904194951057 14.040816403925419,4.425169497728348 13.877551101148129,4.588434800505638 13.795918449759483,4.588434800505638 13.714285798370838,4.588434800505638 13.714285798370838,4.343536846339703 13.877551101148129,4.017006240785122 14.040816403925419,3.608842983841896 14.20408170670271,3.4455776810646057 14.285714358091354,3.3639450296759605 14.285714358091354,3.4455776810646057 14.285714358091354,3.527210332453251 14.285714358091354,3.8537409380078316 14.20408170670271,4.017006240785122 14.122449055314064,4.098638892173767 14.040816403925419,4.098638892173767 13.959183752536774,4.098638892173767 13.959183752536774,4.017006240785122 13.877551101148129,3.7721082866191864 13.877551101148129,3.4455776810646057 13.877551101148129,3.119047075510025 14.040816403925419,2.9557817727327347 14.040816403925419,2.9557817727327347 14.122449055314064,2.9557817727327347 14.285714358091354,3.03741442412138 14.448979660868645,3.20067972689867 14.53061231225729,3.2823123782873154 14.53061231225729,3.3639450296759605 14.53061231225729,3.2823123782873154 14.53061231225729,3.20067972689867 14.53061231225729,3.119047075510025 14.53061231225729,3.03741442412138 14.53061231225729,2.8741491213440895 14.612244963645935,2.8741491213440895 14.612244963645935,2.8741491213440895 14.69387761503458,2.8741491213440895 14.69387761503458,2.8741491213440895 14.775510266423225,3.03741442412138 14.775510266423225,3.119047075510025 14.775510266423225,3.3639450296759605 14.775510266423225,3.527210332453251 14.612244963645935,3.8537409380078316 14.612244963645935,4.017006240785122 14.53061231225729,4.180271543562412 14.448979660868645,4.261904194951057 14.36734700948,4.343536846339703 14.285714358091354,4.425169497728348 14.20408170670271,4.588434800505638 14.040816403925419,4.670067451894283 13.877551101148129,4.914965406060219 13.714285798370838,5.159863360226154 13.551020495593548,5.2414960116147995 13.387755192816257,5.40476131439209 13.387755192816257,5.40476131439209 13.387755192816257,5.40476131439209 13.469387844204903,5.2414960116147995 13.632653146982193,4.996598057448864 13.877551101148129,4.833332754671574 14.040816403925419,4.670067451894283 14.20408170670271,4.588434800505638 14.20408170670271,4.588434800505638 14.20408170670271,4.588434800505638 14.20408170670271,4.670067451894283 14.20408170670271,4.996598057448864 14.040816403925419,5.2414960116147995 13.959183752536774,5.486393965780735 13.877551101148129,5.649659268558025 13.714285798370838,5.7312919199466705 13.632653146982193,5.894557222723961 13.632653146982193,5.894557222723961 13.632653146982193,5.894557222723961 13.714285798370838,5.894557222723961 13.795918449759483,5.7312919199466705 13.877551101148129,5.56802661716938 13.877551101148129,5.40476131439209 "/><polyline fill="none" stroke="black" style="color: rgb(0, 0, 0);" stroke-dashoffset="" fill-rule="nonzero" marker-start="" marker-mid="" marker-end="" id="svg_6" points="6.693877778947353,2.9557817727327347 6.693877778947353,2.8741491213440895 6.693877778947353,2.7925164699554443 6.693877778947353,2.710883818566799 6.612245127558708,2.629251167178154 6.530612476170063,2.547618515789509 6.367347173392773,2.4659858644008636 6.122449219226837,2.4659858644008636 5.959183916449547,2.3843532130122185 5.877551265060902,2.3843532130122185 5.877551265060902,2.3027205616235733 5.877551265060902,2.3027205616235733 5.877551265060902,2.221087910234928 5.877551265060902,2.139455258846283 6.040816567838192,2.057822607457638 6.122449219226837,2.057822607457638 6.2857145220041275,2.057822607457638 6.530612476170063,2.057822607457638 6.612245127558708,2.057822607457638 6.693877778947353,2.057822607457638 6.7755104303359985,2.057822607457638 6.7755104303359985,2.057822607457638 6.7755104303359985,2.221087910234928 6.7755104303359985,2.3027205616235733 6.612245127558708,2.4659858644008636 6.367347173392773,2.629251167178154 6.122449219226837,2.629251167178154 5.877551265060902,2.710883818566799 5.632653310894966,2.710883818566799 5.387755356729031,2.710883818566799 5.306122705340385,2.547618515789509 5.306122705340385,2.3843532130122185 5.306122705340385,2.139455258846283 5.469388008117676,2.057822607457638 5.632653310894966,1.8945573046803474 5.877551265060902,1.8129246532917023 6.040816567838192,1.8129246532917023 6.2857145220041275,1.8129246532917023 6.612245127558708,1.8129246532917023 6.7755104303359985,1.9761899560689926 6.857143081724644,2.221087910234928 6.857143081724644,2.3843532130122185 6.857143081724644,2.547618515789509 6.7755104303359985,2.710883818566799 6.612245127558708,2.7925164699554443 6.448979824781418,2.7925164699554443 6.204081870615482,2.710883818566799 6.040816567838192,2.629251167178154 5.877551265060902,2.4659858644008636 5.877551265060902,2.3843532130122185 5.877551265060902,2.221087910234928 6.040816567838192,2.057822607457638 6.122449219226837,1.9761899560689926 "/><polyline fill="none" stroke="black" style="color: rgb(0, 0, 0);" stroke-dashoffset="" fill-rule="nonzero" marker-start="" marker-mid="" marker-end="" id="svg_7" points="6.530612476170063,1.9761899560689926 6.612245127558708,1.9761899560689926 6.612245127558708,2.057822607457638 6.530612476170063,2.3027205616235733 6.367347173392773,2.547618515789509 6.040816567838192,2.710883818566799 5.714285962283611,2.7925164699554443 5.469388008117676,2.7925164699554443 5.306122705340385,2.7925164699554443 5.142857402563095,2.547618515789509 5.142857402563095,2.3843532130122185 5.142857402563095,2.139455258846283 5.306122705340385,1.8945573046803474 5.387755356729031,1.731292001903057 5.469388008117676,1.649659350514412 5.551020659506321,1.5680266991257668 5.632653310894966,1.5680266991257668 5.714285962283611,1.649659350514412 5.714285962283611,1.8129246532917023 5.714285962283611,1.9761899560689926 5.632653310894966,2.221087910234928 5.387755356729031,2.3843532130122185 5.142857402563095,2.3843532130122185 4.653061494231224,2.3843532130122185 4.244898237287998,2.221087910234928 4.081632934510708,2.057822607457638 4.000000283122063,1.9761899560689926 4.000000283122063,1.731292001903057 4.000000283122063,1.5680266991257668 4.163265585899353,1.4047613963484764 4.326530888676643,1.3231287449598312 4.489796191453934,1.241496093571186 4.571428842842579,1.241496093571186 4.571428842842579,1.3231287449598312 4.653061494231224,1.4047613963484764 4.653061494231224,1.5680266991257668 4.653061494231224,1.8129246532917023 4.571428842842579,1.9761899560689926 4.4081635400652885,2.057822607457638 4.163265585899353,2.139455258846283 4.000000283122063,2.139455258846283 3.755102328956127,2.139455258846283 3.673469677567482,2.139455258846283 3.673469677567482,1.9761899560689926 3.673469677567482,1.731292001903057 4.000000283122063,1.5680266991257668 4.489796191453934,1.4047613963484764 5.06122475117445,1.4047613963484764 5.469388008117676,1.4047613963484764 5.632653310894966,1.4047613963484764 5.714285962283611,1.4047613963484764 5.714285962283611,1.4047613963484764 5.714285962283611,1.4863940477371216 5.714285962283611,1.5680266991257668 5.632653310894966,1.8129246532917023 5.387755356729031,1.8945573046803474 5.142857402563095,1.8945573046803474 4.89795944839716,1.8945573046803474 4.816326797008514,1.8129246532917023 4.734694145619869,1.731292001903057 4.816326797008514,1.4863940477371216 4.89795944839716,1.241496093571186 5.142857402563095,1.159863442182541 5.22449005395174,1.0782307907938957 "/><polyline fill="none" stroke="black" style="color: rgb(0, 0, 0);" stroke-dashoffset="" fill-rule="nonzero" marker-start="" marker-mid="" marker-end="" id="svg_8" points="5.387755356729031,0.9965981394052505 5.387755356729031,0.9965981394052505 5.469388008117676,0.9965981394052505 5.469388008117676,0.9965981394052505 5.469388008117676,0.9965981394052505 5.469388008117676,1.241496093571186 5.306122705340385,1.4863940477371216 4.89795944839716,1.731292001903057 4.489796191453934,1.8945573046803474 3.9183676317334175,2.057822607457638 3.3469390720129013,2.139455258846283 2.8571431636810303,2.139455258846283 2.6122452095150948,2.057822607457638 2.6122452095150948,2.057822607457638 2.5306125581264496,1.9761899560689926 2.6122452095150948,1.731292001903057 2.8571431636810303,1.649659350514412 2.9387758150696754,1.5680266991257668 3.102041117846966,1.5680266991257668 3.183673769235611,1.5680266991257668 3.265306420624256,1.731292001903057 3.3469390720129013,1.8129246532917023 3.3469390720129013,2.057822607457638 3.183673769235611,2.221087910234928 3.102041117846966,2.3843532130122185 2.9387758150696754,2.547618515789509 2.775510512292385,2.547618515789509 2.69387786090374,2.547618515789509 2.69387786090374,2.547618515789509 2.69387786090374,2.3027205616235733 2.9387758150696754,2.057822607457638 "/><polyline fill="none" stroke="black" style="color: rgb(0, 0, 0);" stroke-dashoffset="" fill-rule="nonzero" marker-start="" marker-mid="" marker-end="" id="svg_9" points="4.000000283122063,1.5680266991257668 4.326530888676643,1.4863940477371216 4.4081635400652885,1.4863940477371216 4.489796191453934,1.4863940477371216 4.489796191453934,1.4863940477371216 4.489796191453934,1.5680266991257668 4.4081635400652885,1.8129246532917023 4.244898237287998,2.057822607457638 4.000000283122063,2.221087910234928 3.755102328956127,2.3027205616235733 3.591837026178837,2.3843532130122185 3.4285717234015465,2.3843532130122185 3.3469390720129013,2.3027205616235733 3.3469390720129013,2.221087910234928 3.3469390720129013,1.9761899560689926 3.4285717234015465,1.8129246532917023 3.5102043747901917,1.649659350514412 3.673469677567482,1.5680266991257668 3.673469677567482,1.5680266991257668 3.673469677567482,1.731292001903057 3.673469677567482,1.731292001903057 3.591837026178837,1.8129246532917023 3.4285717234015465,1.9761899560689926 3.3469390720129013,1.9761899560689926 3.183673769235611,1.9761899560689926 3.183673769235611,1.9761899560689926 3.183673769235611,1.731292001903057 3.183673769235611,1.5680266991257668 3.3469390720129013,1.4863940477371216 3.591837026178837,1.3231287449598312 3.755102328956127,1.241496093571186 3.8367349803447723,1.159863442182541 3.9183676317334175,1.159863442182541 3.9183676317334175,1.159863442182541 3.9183676317334175,1.241496093571186 3.9183676317334175,1.241496093571186 3.673469677567482,1.4047613963484764 3.3469390720129013,1.5680266991257668 3.102041117846966,1.731292001903057 2.775510512292385,1.9761899560689926 2.5306125581264496,2.057822607457638 2.3673472553491592,2.221087910234928 2.204081952571869,2.3027205616235733 2.0408166497945786,2.4659858644008636 1.9591839984059334,2.629251167178154 1.8775513470172882,2.710883818566799 1.8775513470172882,2.8741491213440895 1.8775513470172882,2.9557817727327347 1.8775513470172882,3.03741442412138 1.8775513470172882,3.20067972689867 1.8775513470172882,3.2823123782873154 1.8775513470172882,3.4455776810646057 1.8775513470172882,3.527210332453251 1.8775513470172882,3.6904756352305412 1.8775513470172882,3.8537409380078316 1.8775513470172882,3.9353735893964767 1.8775513470172882,4.017006240785122 1.8775513470172882,3.8537409380078316 1.8775513470172882,3.7721082866191864 1.9591839984059334,3.527210332453251 2.204081952571869,3.119047075510025 2.285714603960514,2.710883818566799 2.4489799067378044,2.3843532130122185 2.5306125581264496,2.139455258846283 2.6122452095150948,2.057822607457638 2.6122452095150948,1.8945573046803474 2.69387786090374,1.8129246532917023 2.775510512292385,1.731292001903057 2.775510512292385,1.731292001903057 2.775510512292385,1.649659350514412 2.69387786090374,1.649659350514412 2.6122452095150948,1.731292001903057 2.4489799067378044,1.8129246532917023 2.285714603960514,1.8945573046803474 2.1224493011832237,2.057822607457638 2.0408166497945786,2.139455258846283 1.8775513470172882,2.3027205616235733 1.8775513470172882,2.3027205616235733 1.795918695628643,2.3843532130122185 1.795918695628643,2.3843532130122185 1.795918695628643,2.4659858644008636 1.7142860442399979,2.4659858644008636 1.7142860442399979,2.547618515789509 1.7142860442399979,2.629251167178154 1.6326533928513527,2.7925164699554443 1.6326533928513527,2.8741491213440895 1.5510207414627075,3.03741442412138 1.4693880900740623,3.20067972689867 1.4693880900740623,3.2823123782873154 1.4693880900740623,3.4455776810646057 1.4693880900740623,3.527210332453251 1.4693880900740623,3.608842983841896 1.4693880900740623,3.6904756352305412 1.4693880900740623,3.8537409380078316 1.4693880900740623,4.017006240785122 1.6326533928513527,4.261904194951057 1.6326533928513527,4.261904194951057 1.6326533928513527,4.343536846339703 1.7142860442399979,4.506802149116993 1.7142860442399979,4.588434800505638 1.7142860442399979,4.588434800505638 1.7142860442399979,4.670067451894283 1.795918695628643,4.7517001032829285 1.795918695628643,4.833332754671574 1.8775513470172882,4.914965406060219 1.9591839984059334,4.996598057448864 2.1224493011832237,5.159863360226154 2.204081952571869,5.2414960116147995 2.285714603960514,5.323128663003445 2.285714603960514,5.40476131439209 2.4489799067378044,5.40476131439209 2.4489799067378044,5.40476131439209 2.5306125581264496,5.40476131439209 2.5306125581264496,5.323128663003445 2.5306125581264496,5.159863360226154 2.5306125581264496,4.833332754671574 2.6122452095150948,4.588434800505638 2.6122452095150948,4.506802149116993 2.6122452095150948,4.261904194951057 2.6122452095150948,4.098638892173767 2.6122452095150948,3.8537409380078316 2.6122452095150948,3.7721082866191864 2.5306125581264496,3.6904756352305412 2.5306125581264496,3.7721082866191864 2.5306125581264496,4.017006240785122 2.6122452095150948,4.261904194951057 2.6122452095150948,4.588434800505638 2.69387786090374,4.914965406060219 2.69387786090374,5.159863360226154 2.69387786090374,5.323128663003445 2.69387786090374,5.40476131439209 2.69387786090374,5.486393965780735 2.6122452095150948,5.486393965780735 2.6122452095150948,5.486393965780735 2.4489799067378044,5.323128663003445 2.4489799067378044,5.159863360226154 2.3673472553491592,4.996598057448864 2.3673472553491592,4.670067451894283 2.3673472553491592,4.425169497728348 2.3673472553491592,4.098638892173767 2.3673472553491592,3.8537409380078316 2.3673472553491592,3.6904756352305412 2.5306125581264496,3.527210332453251 2.6122452095150948,3.2823123782873154 2.775510512292385,3.119047075510025 2.8571431636810303,2.9557817727327347 2.8571431636810303,3.03741442412138 2.8571431636810303,3.119047075510025 2.8571431636810303,3.3639450296759605 2.8571431636810303,3.7721082866191864 2.8571431636810303,4.180271543562412 2.775510512292385,4.425169497728348 2.6122452095150948,4.833332754671574 2.5306125581264496,4.914965406060219 2.4489799067378044,4.996598057448864 2.285714603960514,4.996598057448864 2.285714603960514,4.996598057448864 2.204081952571869,4.996598057448864 2.0408166497945786,4.996598057448864 1.9591839984059334,4.996598057448864 1.8775513470172882,4.996598057448864 1.6326533928513527,4.996598057448864 1.4693880900740623,4.996598057448864 1.306122787296772,4.914965406060219 1.1428574845194817,4.914965406060219 1.1428574845194817,4.833332754671574 1.0612248331308365,4.833332754671574 1.0612248331308365,4.7517001032829285 1.0612248331308365,4.670067451894283 1.0612248331308365,4.588434800505638 0.9795921817421913,4.506802149116993 0.8979595303535461,4.425169497728348 0.8979595303535461,4.343536846339703 0.8979595303535461,4.261904194951057 0.8979595303535461,4.261904194951057 0.8979595303535461,4.261904194951057 0.8979595303535461,4.261904194951057 1.0612248331308365,4.343536846339703 1.1428574845194817,4.588434800505638 1.2244901359081268,4.7517001032829285 1.3877554386854172,4.914965406060219 1.4693880900740623,5.159863360226154 1.5510207414627075,5.40476131439209 1.7142860442399979,5.56802661716938 1.7142860442399979,5.7312919199466705 1.8775513470172882,5.894557222723961 1.9591839984059334,5.976189874112606 2.0408166497945786,6.057822525501251 2.0408166497945786,6.139455176889896 2.204081952571869,6.221087828278542 2.204081952571869,6.302720479667187 2.285714603960514,6.302720479667187 2.4489799067378044,6.384353131055832 2.5306125581264496,6.384353131055832 2.6122452095150948,6.465985782444477 2.775510512292385,6.547618433833122 2.9387758150696754,6.629251085221767 3.102041117846966,6.629251085221767 3.102041117846966,6.629251085221767 3.183673769235611,6.710883736610413 3.102041117846966,6.710883736610413 3.102041117846966,6.629251085221767 3.102041117846966,6.629251085221767 3.0204084664583206,6.547618433833122 2.8571431636810303,6.465985782444477 2.775510512292385,6.302720479667187 2.6122452095150948,6.221087828278542 2.6122452095150948,6.139455176889896 2.5306125581264496,6.057822525501251 2.4489799067378044,5.976189874112606 2.285714603960514,5.812924571335316 2.285714603960514,5.812924571335316 2.285714603960514,5.812924571335316 2.285714603960514,6.057822525501251 2.285714603960514,6.302720479667187 2.3673472553491592,6.547618433833122 2.3673472553491592,6.629251085221767 2.4489799067378044,6.874149039387703 2.5306125581264496,6.955781690776348 2.6122452095150948,7.037414342164993 2.69387786090374,7.1190469935536385 2.775510512292385,7.1190469935536385 2.8571431636810303,7.200679644942284 3.0204084664583206,7.282312296330929 3.102041117846966,7.363944947719574 3.183673769235611,7.445577599108219 3.3469390720129013,7.527210250496864 3.3469390720129013,7.527210250496864 3.4285717234015465,7.6088429018855095 3.4285717234015465,7.6088429018855095 3.4285717234015465,7.527210250496864 3.5102043747901917,7.445577599108219 3.5102043747901917,7.363944947719574 3.4285717234015465,7.363944947719574 3.3469390720129013,7.282312296330929 3.265306420624256,7.200679644942284 3.3469390720129013,7.282312296330929 3.4285717234015465,7.363944947719574 3.673469677567482,7.445577599108219 4.244898237287998,7.6088429018855095 4.89795944839716,7.690475553274155 5.632653310894966,7.853740856051445 6.122449219226837,7.853740856051445 6.448979824781418,7.853740856051445 6.7755104303359985,7.853740856051445 6.857143081724644,7.93537350744009 7.020408384501934,7.93537350744009 7.183673687279224,7.93537350744009 7.26530633866787,7.93537350744009 7.42857164144516,7.93537350744009 7.59183694422245,7.93537350744009 7.755102246999741,7.93537350744009 8.000000201165676,7.93537350744009 8.326530806720257,7.93537350744009 8.571428760886192,7.93537350744009 8.816326715052128,7.93537350744009 9.061224669218063,7.93537350744009 9.142857320606709,7.93537350744009 9.306122623383999,7.93537350744009 9.551020577549934,7.93537350744009 9.714285880327225,7.93537350744009 9.95918383449316,7.93537350744009 10.204081788659096,7.93537350744009 10.448979742825031,7.93537350744009 10.693877696990967,7.853740856051445 10.857142999768257,7.853740856051445 11.020408302545547,7.853740856051445 11.102040953934193,7.7721082046628 11.183673605322838,7.7721082046628 11.428571559488773,7.7721082046628 11.673469513654709,7.690475553274155 12.00000011920929,7.6088429018855095 12.16326542198658,7.6088429018855095 12.32653072476387,7.527210250496864 12.408163376152515,7.445577599108219 12.571428678929806,7.363944947719574 12.653061330318451,7.282312296330929 12.734693981707096,7.282312296330929 12.734693981707096,7.200679644942284 12.816326633095741,7.200679644942284 12.897959284484386,7.1190469935536385 12.897959284484386,7.1190469935536385 12.979591935873032,6.955781690776348 13.061224587261677,6.955781690776348 13.142857238650322,6.874149039387703 13.142857238650322,6.710883736610413 13.224489890038967,6.629251085221767 13.306122541427612,6.547618433833122 13.387755192816257,6.384353131055832 13.469387844204903,6.302720479667187 13.469387844204903,6.139455176889896 13.551020495593548,6.139455176889896 13.551020495593548,6.057822525501251 13.551020495593548,5.976189874112606 13.632653146982193,5.976189874112606 13.632653146982193,5.976189874112606 13.632653146982193,5.894557222723961 "/><polyline fill="none" stroke="black" style="color: rgb(0, 0, 0);" stroke-dashoffset="" fill-rule="nonzero" marker-start="" marker-mid="" marker-end="" id="svg_10" points="13.632653146982193,5.812924571335316 13.714285798370838,5.7312919199466705 "/><polyline fill="none" stroke="black" style="color: rgb(0, 0, 0);" stroke-dashoffset="" fill-rule="nonzero" marker-start="" marker-mid="" marker-end="" id="svg_11" points="14.775510266423225,4.425169497728348 14.775510266423225,4.506802149116993 14.775510266423225,4.588434800505638 14.775510266423225,4.670067451894283 14.775510266423225,4.914965406060219 14.69387761503458,4.996598057448864 14.612244963645935,5.159863360226154 14.612244963645935,5.2414960116147995 14.53061231225729,5.40476131439209 14.448979660868645,5.486393965780735 14.285714358091354,5.649659268558025 14.20408170670271,5.812924571335316 14.040816403925419,6.057822525501251 13.877551101148129,6.139455176889896 13.714285798370838,6.302720479667187 13.632653146982193,6.547618433833122 13.469387844204903,6.629251085221767 13.387755192816257,6.629251085221767 13.387755192816257,6.710883736610413 13.306122541427612,6.792516387999058 13.142857238650322,6.792516387999058 13.061224587261677,6.874149039387703 12.816326633095741,6.955781690776348 12.571428678929806,7.037414342164993 12.48979602754116,7.1190469935536385 12.32653072476387,7.1190469935536385 12.244898073375225,7.200679644942284 12.081632770597935,7.200679644942284 11.918367467820644,7.200679644942284 11.755102165043354,7.282312296330929 11.673469513654709,7.282312296330929 11.428571559488773,7.282312296330929 11.265306256711483,7.363944947719574 10.857142999768257,7.445577599108219 10.448979742825031,7.445577599108219 10.040816485881805,7.445577599108219 9.95918383449316,7.445577599108219 9.79591853171587,7.445577599108219 9.79591853171587,7.445577599108219 9.877551183104515,7.363944947719574 10.040816485881805,7.200679644942284 10.285714440047741,7.037414342164993 10.693877696990967,6.792516387999058 11.020408302545547,6.629251085221767 11.183673605322838,6.629251085221767 11.346938908100128,6.547618433833122 11.428571559488773,6.547618433833122 11.591836862266064,6.547618433833122 11.591836862266064,6.629251085221767 11.591836862266064,6.710883736610413 11.673469513654709,6.874149039387703 11.673469513654709,7.037414342164993 11.673469513654709,7.200679644942284 11.673469513654709,7.445577599108219 11.673469513654709,7.690475553274155 11.591836862266064,7.853740856051445 11.510204210877419,8.017006158828735 11.428571559488773,8.09863881021738 11.265306256711483,8.26190411299467 11.102040953934193,8.343536764383316 10.938775651156902,8.425169415771961 10.775510348379612,8.588434718549252 10.448979742825031,8.751700021326542 10.204081788659096,8.833332672715187 10.040816485881805,8.914965324103832 9.95918383449316,8.914965324103832 9.877551183104515,8.914965324103832 9.877551183104515,8.914965324103832 "/><polyline fill="none" stroke="black" style="color: rgb(0, 0, 0);" stroke-dashoffset="" fill-rule="nonzero" marker-start="" marker-mid="" marker-end="" id="svg_12" points="11.755102165043354,7.853740856051445 11.755102165043354,7.853740856051445 11.755102165043354,8.017006158828735 11.591836862266064,8.09863881021738 11.428571559488773,8.26190411299467 11.346938908100128,8.343536764383316 11.102040953934193,8.425169415771961 11.020408302545547,8.506802067160606 10.857142999768257,8.588434718549252 10.775510348379612,8.588434718549252 10.612245045602322,8.670067369937897 10.530612394213676,8.833332672715187 10.285714440047741,8.914965324103832 10.12244913727045,8.914965324103832 9.95918383449316,8.996597975492477 9.63265322893858,9.159863278269768 9.46938792616129,9.159863278269768 9.387755274772644,9.241495929658413 9.387755274772644,9.241495929658413 9.306122623383999,9.241495929658413 9.224489971995354,9.323128581047058 9.142857320606709,9.323128581047058 9.142857320606709,9.404761232435703 9.061224669218063,9.404761232435703 9.061224669218063,9.404761232435703 9.061224669218063,9.404761232435703 9.061224669218063,9.486393883824348 8.979592017829418,9.486393883824348 "/><polyline fill="none" stroke="black" style="color: rgb(0, 0, 0);" stroke-dashoffset="" fill-rule="nonzero" marker-start="" marker-mid="" marker-end="" id="svg_13" points="3.755102328956127,8.09863881021738 3.9183676317334175,8.09863881021738 4.000000283122063,8.09863881021738 4.244898237287998,8.09863881021738 4.489796191453934,8.09863881021738 4.816326797008514,8.09863881021738 5.06122475117445,8.09863881021738 5.632653310894966,8.09863881021738 6.040816567838192,8.09863881021738 6.448979824781418,8.09863881021738 6.7755104303359985,8.09863881021738 7.183673687279224,8.09863881021738 7.59183694422245,8.180271461606026 7.755102246999741,8.26190411299467 8.000000201165676,8.26190411299467 8.244898155331612,8.26190411299467 8.408163458108902,8.26190411299467 8.571428760886192,8.26190411299467 8.816326715052128,8.26190411299467 9.061224669218063,8.26190411299467 9.306122623383999,8.26190411299467 9.46938792616129,8.26190411299467 9.714285880327225,8.26190411299467 9.877551183104515,8.26190411299467 10.040816485881805,8.26190411299467 10.285714440047741,8.26190411299467 10.448979742825031,8.26190411299467 10.448979742825031,8.26190411299467 10.530612394213676,8.26190411299467 10.530612394213676,8.26190411299467 10.530612394213676,8.26190411299467 "/><polyline fill="none" stroke="black" style="color: rgb(0, 0, 0);" stroke-dashoffset="" fill-rule="nonzero" marker-start="" marker-mid="" marker-end="" id="svg_14" points="10.448979742825031,8.833332672715187 10.285714440047741,8.914965324103832 9.95918383449316,8.996597975492477 9.79591853171587,9.159863278269768 9.63265322893858,9.241495929658413 9.46938792616129,9.323128581047058 9.306122623383999,9.404761232435703 9.142857320606709,9.404761232435703 9.061224669218063,9.486393883824348 8.979592017829418,9.568026535212994 8.816326715052128,9.649659186601639 8.734694063663483,9.731291837990284 8.571428760886192,9.81292448937893 8.489796109497547,9.81292448937893 8.408163458108902,9.97618979215622 8.326530806720257,9.97618979215622 8.326530806720257,10.057822443544865 8.244898155331612,10.13945509493351 8.244898155331612,10.13945509493351 8.244898155331612,10.3027203977108 8.163265503942966,10.384353049099445 8.163265503942966,10.46598570048809 8.163265503942966,10.547618351876736 "/><polyline fill="none" stroke="black" style="color: rgb(0, 0, 0);" stroke-dashoffset="" fill-rule="nonzero" marker-start="" marker-mid="" marker-end="" id="svg_15" points="10.285714440047741,9.241495929658413 10.204081788659096,9.323128581047058 10.040816485881805,9.404761232435703 9.95918383449316,9.486393883824348 9.79591853171587,9.568026535212994 9.714285880327225,9.568026535212994 9.551020577549934,9.731291837990284 9.387755274772644,9.81292448937893 9.306122623383999,9.97618979215622 9.142857320606709,10.057822443544865 9.061224669218063,10.13945509493351 8.897959366440773,10.221087746322155 8.816326715052128,10.3027203977108 8.734694063663483,10.3027203977108 8.734694063663483,10.384353049099445 8.653061412274837,10.384353049099445 8.571428760886192,10.384353049099445 8.489796109497547,10.46598570048809 8.489796109497547,10.547618351876736 8.326530806720257,10.547618351876736 8.326530806720257,10.62925100326538 8.326530806720257,10.62925100326538 8.244898155331612,10.62925100326538 8.244898155331612,10.710883654654026 8.163265503942966,10.710883654654026 8.163265503942966,10.792516306042671 8.163265503942966,10.874148957431316 8.081632852554321,10.874148957431316 8.081632852554321,10.955781608819962 8.081632852554321,10.955781608819962 8.081632852554321,11.037414260208607 "/><polyline fill="none" stroke="black" style="color: rgb(0, 0, 0);" stroke-dashoffset="" fill-rule="nonzero" marker-start="" marker-mid="" marker-end="" id="svg_16" points="7.918367549777031,11.527210168540478 8.000000201165676,11.527210168540478 8.000000201165676,11.445577517151833 8.163265503942966,11.363944865763187 8.326530806720257,11.282312214374542 8.408163458108902,11.200679562985897 8.571428760886192,11.119046911597252 8.571428760886192,10.955781608819962 8.734694063663483,10.874148957431316 8.816326715052128,10.710883654654026 8.897959366440773,10.710883654654026 9.061224669218063,10.62925100326538 9.061224669218063,10.547618351876736 9.142857320606709,10.46598570048809 9.224489971995354,10.384353049099445 9.306122623383999,10.3027203977108 9.387755274772644,10.221087746322155 9.46938792616129,10.13945509493351 9.63265322893858,10.13945509493351 9.63265322893858,10.057822443544865 9.79591853171587,9.97618979215622 9.95918383449316,9.894557140767574 10.040816485881805,9.731291837990284 10.204081788659096,9.649659186601639 10.448979742825031,9.486393883824348 10.612245045602322,9.404761232435703 10.775510348379612,9.241495929658413 10.938775651156902,9.159863278269768 11.020408302545547,8.996597975492477 11.102040953934193,8.996597975492477 11.183673605322838,8.914965324103832 11.102040953934193,8.996597975492477 11.020408302545547,8.996597975492477 10.857142999768257,9.078230626881123 10.612245045602322,9.159863278269768 10.285714440047741,9.241495929658413 9.95918383449316,9.404761232435703 9.46938792616129,9.404761232435703 9.142857320606709,9.404761232435703 8.897959366440773,9.404761232435703 8.734694063663483,9.404761232435703 8.653061412274837,9.404761232435703 8.653061412274837,9.241495929658413 8.653061412274837,8.996597975492477 8.734694063663483,8.914965324103832 8.897959366440773,8.751700021326542 9.306122623383999,8.588434718549252 9.714285880327225,8.425169415771961 10.204081788659096,8.425169415771961 10.285714440047741,8.343536764383316 10.367347091436386,8.343536764383316 10.448979742825031,8.343536764383316 10.285714440047741,8.588434718549252 10.040816485881805,8.751700021326542 9.551020577549934,8.914965324103832 9.142857320606709,9.078230626881123 8.734694063663483,9.159863278269768 8.244898155331612,9.078230626881123 8.000000201165676,8.914965324103832 7.918367549777031,8.751700021326542 7.836734898388386,8.506802067160606 7.836734898388386,8.09863881021738 8.163265503942966,7.445577599108219 8.571428760886192,7.037414342164993 9.142857320606709,6.710883736610413 9.551020577549934,6.547618433833122 9.79591853171587,6.384353131055832 9.877551183104515,6.384353131055832 9.877551183104515,6.302720479667187 9.877551183104515,6.221087828278542 9.877551183104515,6.139455176889896 9.877551183104515,6.139455176889896 "/><polyline fill="none" stroke="black" style="color: rgb(0, 0, 0);" stroke-dashoffset="" fill-rule="nonzero" marker-start="" marker-mid="" marker-end="" id="svg_17" points="9.877551183104515,5.7312919199466705 9.877551183104515,5.649659268558025 9.877551183104515,5.56802661716938 9.877551183104515,5.56802661716938 9.877551183104515,5.486393965780735 "/><polyline fill="none" stroke="black" style="color: rgb(0, 0, 0);" stroke-dashoffset="" fill-rule="nonzero" marker-start="" marker-mid="" marker-end="" id="svg_18" points="9.877551183104515,5.486393965780735 9.63265322893858,5.649659268558025 9.551020577549934,5.812924571335316 9.061224669218063,6.302720479667187 8.734694063663483,6.465985782444477 8.653061412274837,6.547618433833122 8.571428760886192,6.547618433833122 8.571428760886192,6.384353131055832 8.653061412274837,6.221087828278542 8.816326715052128,5.894557222723961 8.897959366440773,5.649659268558025 9.061224669218063,5.56802661716938 9.142857320606709,5.56802661716938 9.306122623383999,5.812924571335316 9.306122623383999,5.976189874112606 9.306122623383999,6.139455176889896 9.306122623383999,6.302720479667187 9.306122623383999,6.384353131055832 "/><polyline fill="none" stroke="black" style="color: rgb(0, 0, 0);" stroke-dashoffset="" fill-rule="nonzero" marker-start="" marker-mid="" marker-end="" id="svg_19" points="9.142857320606709,5.40476131439209 9.306122623383999,5.56802661716938 9.387755274772644,5.812924571335316 9.551020577549934,6.221087828278542 9.63265322893858,6.629251085221767 9.714285880327225,7.037414342164993 9.714285880327225,7.282312296330929 9.714285880327225,7.6088429018855095 9.714285880327225,7.7721082046628 9.714285880327225,7.853740856051445 9.714285880327225,8.017006158828735 9.714285880327225,8.09863881021738 9.714285880327225,8.180271461606026 9.63265322893858,8.26190411299467 9.551020577549934,8.343536764383316 9.46938792616129,8.343536764383316 "/><polyline fill="none" stroke="black" style="color: rgb(0, 0, 0);" stroke-dashoffset="" fill-rule="nonzero" marker-start="" marker-mid="" marker-end="" id="svg_20" points="8.489796109497547,9.894557140767574 8.326530806720257,9.97618979215622 8.163265503942966,10.057822443544865 8.000000201165676,10.13945509493351 7.918367549777031,10.3027203977108 7.918367549777031,10.3027203977108 7.836734898388386,10.3027203977108 7.836734898388386,10.384353049099445 7.755102246999741,10.384353049099445 7.755102246999741,10.46598570048809 7.755102246999741,10.547618351876736 7.755102246999741,10.62925100326538 7.755102246999741,10.710883654654026 7.755102246999741,10.710883654654026 7.755102246999741,10.874148957431316 7.755102246999741,10.874148957431316 7.755102246999741,10.955781608819962 7.755102246999741,10.955781608819962 7.755102246999741,11.037414260208607 7.755102246999741,10.955781608819962 7.673469595611095,10.874148957431316 7.673469595611095,10.874148957431316 7.673469595611095,10.62925100326538 7.673469595611095,10.46598570048809 7.673469595611095,10.221087746322155 7.673469595611095,9.97618979215622 7.755102246999741,9.81292448937893 7.755102246999741,9.568026535212994 7.755102246999741,9.404761232435703 7.836734898388386,9.323128581047058 7.918367549777031,9.159863278269768 7.918367549777031,9.159863278269768 7.918367549777031,9.078230626881123 7.918367549777031,8.996597975492477 7.918367549777031,8.914965324103832 7.918367549777031,8.914965324103832 7.836734898388386,8.914965324103832 7.755102246999741,8.914965324103832 7.755102246999741,8.833332672715187 7.673469595611095,8.833332672715187 7.673469595611095,8.751700021326542 7.673469595611095,8.751700021326542 7.59183694422245,8.670067369937897 7.59183694422245,8.588434718549252 7.510204292833805,8.506802067160606 7.510204292833805,8.425169415771961 7.42857164144516,8.425169415771961 "/><polyline fill="none" stroke="black" style="color: rgb(0, 0, 0);" stroke-dashoffset="" fill-rule="nonzero" marker-start="" marker-mid="" marker-end="" id="svg_21" points="7.42857164144516,8.425169415771961 7.42857164144516,8.506802067160606 7.42857164144516,8.588434718549252 7.42857164144516,8.751700021326542 7.42857164144516,8.914965324103832 7.42857164144516,9.078230626881123 7.346938990056515,9.241495929658413 7.346938990056515,9.404761232435703 7.346938990056515,9.486393883824348 7.346938990056515,9.568026535212994 7.346938990056515,9.649659186601639 7.346938990056515,9.731291837990284 7.346938990056515,9.81292448937893 7.346938990056515,9.97618979215622 7.346938990056515,10.057822443544865 7.346938990056515,10.13945509493351 7.346938990056515,10.13945509493351 7.42857164144516,10.3027203977108 7.42857164144516,10.384353049099445 7.42857164144516,10.384353049099445 7.42857164144516,10.46598570048809 7.42857164144516,10.547618351876736 7.42857164144516,10.547618351876736 7.42857164144516,10.62925100326538 7.42857164144516,10.62925100326538 7.346938990056515,10.62925100326538 7.26530633866787,10.62925100326538 7.102041035890579,10.547618351876736 7.020408384501934,10.384353049099445 6.857143081724644,10.13945509493351 6.7755104303359985,9.97618979215622 6.7755104303359985,9.731291837990284 6.7755104303359985,9.486393883824348 6.7755104303359985,9.404761232435703 6.7755104303359985,9.159863278269768 6.7755104303359985,8.996597975492477 6.7755104303359985,8.914965324103832 6.7755104303359985,8.833332672715187 6.7755104303359985,8.833332672715187 6.7755104303359985,8.670067369937897 6.7755104303359985,8.588434718549252 6.7755104303359985,8.425169415771961 6.7755104303359985,8.343536764383316 6.7755104303359985,8.26190411299467 6.7755104303359985,8.09863881021738 6.7755104303359985,8.09863881021738 6.7755104303359985,8.017006158828735 6.7755104303359985,8.09863881021738 6.7755104303359985,8.180271461606026 6.7755104303359985,8.26190411299467 6.7755104303359985,8.506802067160606 6.7755104303359985,8.670067369937897 6.7755104303359985,8.914965324103832 6.7755104303359985,9.159863278269768 6.7755104303359985,9.241495929658413 6.7755104303359985,9.323128581047058 6.7755104303359985,9.404761232435703 6.7755104303359985,9.404761232435703 6.7755104303359985,9.486393883824348 6.7755104303359985,9.486393883824348 6.693877778947353,9.486393883824348 6.612245127558708,9.486393883824348 6.530612476170063,9.486393883824348 6.530612476170063,9.486393883824348 6.448979824781418,9.486393883824348 6.448979824781418,9.486393883824348 6.367347173392773,9.486393883824348 6.2857145220041275,9.486393883824348 6.2857145220041275,9.486393883824348 6.204081870615482,9.486393883824348 6.122449219226837,9.486393883824348 6.040816567838192,9.486393883824348 6.040816567838192,9.486393883824348 5.959183916449547,9.486393883824348 5.877551265060902,9.404761232435703 5.877551265060902,9.323128581047058 5.714285962283611,9.241495929658413 5.632653310894966,9.159863278269768 5.632653310894966,9.159863278269768 5.387755356729031,8.996597975492477 5.306122705340385,8.914965324103832 5.306122705340385,8.914965324103832 5.22449005395174,8.833332672715187 5.142857402563095,8.833332672715187 5.142857402563095,8.751700021326542 5.06122475117445,8.670067369937897 5.06122475117445,8.670067369937897 5.06122475117445,8.588434718549252 4.979592099785805,8.588434718549252 4.979592099785805,8.588434718549252 4.89795944839716,8.588434718549252 4.89795944839716,8.588434718549252 4.816326797008514,8.588434718549252 4.816326797008514,8.588434718549252 4.734694145619869,8.588434718549252 4.734694145619869,8.588434718549252 4.653061494231224,8.588434718549252 4.571428842842579,8.588434718549252 4.571428842842579,8.588434718549252 4.734694145619869,8.588434718549252 4.89795944839716,8.588434718549252 5.22449005395174,8.588434718549252 5.551020659506321,8.588434718549252 5.877551265060902,8.588434718549252 6.040816567838192,8.588434718549252 6.204081870615482,8.588434718549252 6.2857145220041275,8.588434718549252 6.367347173392773,8.588434718549252 6.448979824781418,8.588434718549252 6.448979824781418,8.588434718549252 6.530612476170063,8.588434718549252 6.612245127558708,8.588434718549252 6.693877778947353,8.588434718549252 6.7755104303359985,8.588434718549252 6.7755104303359985,8.588434718549252 6.7755104303359985,8.588434718549252 6.7755104303359985,8.588434718549252 6.693877778947353,8.588434718549252 6.530612476170063,8.588434718549252 6.2857145220041275,8.588434718549252 6.040816567838192,8.588434718549252 5.7959186136722565,8.588434718549252 5.469388008117676,8.588434718549252 5.306122705340385,8.506802067160606 5.142857402563095,8.425169415771961 4.979592099785805,8.343536764383316 4.816326797008514,8.26190411299467 4.571428842842579,8.26190411299467 4.326530888676643,8.180271461606026 4.081632934510708,8.180271461606026 3.9183676317334175,8.09863881021738 3.8367349803447723,8.09863881021738 3.8367349803447723,8.09863881021738 3.755102328956127,8.017006158828735 3.9183676317334175,8.017006158828735 3.9183676317334175,8.09863881021738 4.163265585899353,8.26190411299467 4.4081635400652885,8.343536764383316 4.489796191453934,8.425169415771961 4.734694145619869,8.506802067160606 4.89795944839716,8.588434718549252 5.06122475117445,8.588434718549252 5.142857402563095,8.588434718549252 "/></g></svg>